<?xml version="1.0" encoding="UTF-8"?>
<svg id="Layer_2" data-name="Layer 2" xmlns="http://www.w3.org/2000/svg" viewBox="0 0 166.48 39.8">
  <g id="Layer_16" data-name="Layer 16">
    <g id="moniepoint">
      <g>
        <path id="Path_84" data-name="Path 84" d="m70.69,17.76c2.76-2.31,6.78-2.31,9.54,0,1.28,1.12,1.99,2.76,1.94,4.47.05,1.7-.66,3.33-1.94,4.45-1.32,1.14-3.02,1.74-4.76,1.69-1.75.05-3.45-.55-4.78-1.69-1.26-1.13-1.96-2.75-1.91-4.45-.05-1.7.65-3.34,1.91-4.47Zm4.78,7.3c1.47.02,2.69-1.16,2.71-2.63,0-.07,0-.13,0-.2,0-1.74-1.2-2.9-2.7-2.9s-2.7,1.16-2.7,2.9c-.08,1.48,1.05,2.74,2.53,2.83.06,0,.11,0,.17,0Z" fill="#f7f9fc"/>
        <path id="Path_85" data-name="Path 85" d="m91.19,16.02c-1.54-.08-2.99.71-3.76,2.04h-.05l.02-.29v-.17c0-.83-.57-1.33-1.65-1.33h-3.54v3.33h.89c.36,0,.5.17.5.5v7.96h4v-5.23c-.02-.53.07-1.05.24-1.55.28-1.05,1.26-1.75,2.34-1.69.89,0,1.32.52,1.32,1.55v5.25c0,1.16.5,1.66,1.67,1.66h2.3v-7.63c0-2.97-1.44-4.42-4.28-4.42Z" fill="#f7f9fc"/>
        <path id="Path_86" data-name="Path 86" d="m98.31,11.72v3.21h3.35v-3.21h-3.35Zm2.01,4.56h-3.68v3.33h.89c.24-.04.47.13.5.37,0,.04,0,.08,0,.13v6.3c0,1.16.5,1.66,1.67,1.66h2.3v-10.1c0-1.19-.5-1.69-1.67-1.69h0Z" fill="#f7f9fc"/>
        <path id="Path_87" data-name="Path 87" d="m105.08,17.78c1.18-1.19,2.82-1.83,4.5-1.76,1.51-.08,2.97.5,4.02,1.59,1.01,1.12,1.54,2.58,1.48,4.09,0,.41-.04.83-.1,1.24h-7.48c.26,1.3,1.45,2.21,2.77,2.12,1.19-.06,2.33-.48,3.28-1.19l1.48,2.78c-1.45,1.12-3.24,1.72-5.07,1.71-1.77.09-3.5-.58-4.76-1.83-1.14-1.16-1.77-2.73-1.75-4.35-.09-1.63.5-3.22,1.63-4.4Zm6.05,2.9c.07-.9-.6-1.68-1.5-1.75-.04,0-.09,0-.13,0-1,0-1.65.59-1.91,1.76h3.54Z" fill="#f7f9fc"/>
        <path id="Path_88" data-name="Path 88" d="m116.49,16.5h2.08v1.02c0,.29-.02.59-.07.88h.05c.79-1.41,2.31-2.25,3.92-2.19,3.16,0,5.12,2.47,5.12,6.06s-2.22,6.06-5.29,6.06c-1.46,0-2.83-.74-3.61-1.97h-.05c.07.33.1.66.1,1v5.28h-2.22v-16.14h-.02Zm5.48,9.94c1.84,0,3.37-1.5,3.37-4.11s-1.36-4.14-3.3-4.14c-1.75,0-3.37,1.24-3.37,4.16,0,2.05,1.15,4.09,3.3,4.09Z" fill="#f7f9fc"/>
        <path id="Path_89" data-name="Path 89" d="m134.93,16.22c3.49,0,6.29,2.54,6.29,6.04,0,3.36-2.73,6.09-6.09,6.09-.06,0-.12,0-.18,0-3.49,0-6.29-2.57-6.29-6.09s2.82-6.04,6.27-6.04Zm.02,10.22c2.22,0,4.02-1.81,4.02-4.03,0-.04,0-.09,0-.13.06-2.22-1.7-4.06-3.92-4.12-2.22-.06-4.06,1.7-4.12,3.92,0,.07,0,.13,0,.2-.07,2.23,1.69,4.09,3.92,4.16.03,0,.07,0,.1,0h0Z" fill="#f7f9fc"/>
        <path id="Path_90" data-name="Path 90" d="m142.97,11.91h2.3v2.24h-2.3v-2.24Zm.05,4.59h2.22v11.6h-2.22v-11.6Z" fill="#f7f9fc"/>
        <path id="Path_91" data-name="Path 91" d="m147.75,16.5h2.18v1.57c0,.29-.02.59-.07.88h.05c.81-1.7,2.54-2.77,4.42-2.73,2.75,0,3.99,1.5,3.99,4.45v7.42h-2.22v-6.92c0-1.62-.31-2.9-2.2-2.9-2.27,0-3.9,1.88-3.9,4.26v5.56h-2.22v-11.58h-.02Z" fill="#f7f9fc"/>
        <path id="Path_92" data-name="Path 92" d="m161.22,18.43h-1.53v-1.81h1.58v-3.3h2.2v3.3h2.82v1.81h-2.82v5.18c0,2.31,1.63,2.62,2.49,2.62.18,0,.35-.01.53-.05v1.97c-.26.04-.52.07-.79.07-1.51,0-4.47-.48-4.47-4.35v-5.44Z" fill="#f7f9fc"/>
        <path id="Path_93" data-name="Path 93" d="m67.51,21.09l-.77-9.37h-4.66s-3.56,7.23-3.85,8.2h-.05l-3.73-8.2h-4.66l-.77,8.13-.65,8.25h2.85c1.22,0,1.72-.52,1.82-1.81,0,0,.48-7.56.41-8.65h.05l.14.5c.19.67,2.85,7.11,2.85,7.11h3.49s2.66-6.35,2.99-7.61h.05l.41,8.65c.1,1.28.6,1.81,1.82,1.81h2.85l-.58-7.01Z" fill="#f7f9fc"/>
      </g>
      <path id="Path_95" data-name="Path 95" d="m20.09,39.8h-.14c-9.28-.02-15.5-1.95-16.79-3.14-1.36-1.21-3.16-7.49-3.16-16.76S1.79,4.35,3.16,3.14C4.45,1.95,10.69.02,19.95,0h.14c9.28.02,15.5,1.95,16.79,3.14,1.36,1.21,3.16,7.51,3.16,16.76s-1.79,15.55-3.16,16.76c-1.29,1.21-7.51,3.14-16.79,3.14Z" fill="#3d61ad"/>
      <path id="Path_96" data-name="Path 96" d="m29.25,21.09l-.77-9.3h-4.62s-3.52,7.16-3.83,8.13h-.05l-3.71-8.13h-4.64l-.77,8.06-.65,8.18h2.82c1.22,0,1.7-.52,1.79-1.81,0,0,.48-7.49.41-8.58h.05l.14.5c.19.67,2.82,7.06,2.82,7.06h3.47s2.63-6.3,2.97-7.56h.05l.41,8.58c.1,1.28.6,1.81,1.79,1.81h2.82l-.52-6.94Z" fill="#fff"/>
    </g>
  </g>
</svg>